<svg width="548" height="320" viewBox="0 0 548 320" fill="none" xmlns="http://www.w3.org/2000/svg">
<path opacity="0.02" fill-rule="evenodd" clip-rule="evenodd" d="M273.941 0.5C423.343 0.5 544.818 120.487 547.881 269.668H0C3.06394 120.487 124.538 0.5 273.941 0.5Z" fill="#0046FF"/>
<path opacity="0.1" fill-rule="evenodd" clip-rule="evenodd" d="M274.472 64.3346C387.966 64.3346 479.972 156.527 479.972 270.252L479.967 269.669L68.9725 269.668C69.2837 157.348 159.34 66.1775 271.073 64.3622L274.472 64.3346Z" fill="#0046FF"/>
<rect x="388" y="100" width="32" height="32" rx="4" fill="#2C2D34"/>
<path d="M399.999 127.995C402.207 127.995 403.998 126.204 403.998 123.996V119.997H399.999C397.792 119.997 396 121.788 396 123.996C396 126.204 397.792 127.995 399.999 127.995Z" fill="#0ACF83"/>
<path d="M396 115.998C396 113.79 397.792 111.998 399.999 111.998H403.998V119.997H399.999C397.792 119.997 396 118.205 396 115.998Z" fill="#A259FF"/>
<path d="M396 107.999C396 105.792 397.792 104 399.999 104H403.998V111.998H399.999C397.792 111.998 396 110.207 396 107.999Z" fill="#F24E1E"/>
<path d="M403.998 104H407.998C410.205 104 411.997 105.792 411.997 107.999C411.997 110.207 410.205 111.998 407.998 111.998H403.998V104Z" fill="#FF7262"/>
<path d="M411.997 115.998C411.997 118.205 410.205 119.997 407.998 119.997C405.79 119.997 403.998 118.205 403.998 115.998C403.998 113.79 405.79 111.998 407.998 111.998C410.205 111.998 411.997 113.79 411.997 115.998Z" fill="#1ABCFE"/>
<path opacity="0.1" fill-rule="evenodd" clip-rule="evenodd" d="M414.127 269.669C378.018 269.669 284.561 269.669 133.755 269.669C133.755 192.108 196.518 129.233 273.941 129.233C351.363 129.233 414.127 192.108 414.127 269.669Z" fill="#0046FF"/>
<path d="M205.8 58.0169L216.553 56.8872L227.306 58.0169L235.631 69.122L216.553 91.1983L197.476 69.122L205.8 58.0169Z" fill="#FDB300"/>
<path fill-rule="evenodd" clip-rule="evenodd" d="M216.553 91.1984L205.203 69.122H197.476L216.553 91.1984ZM216.554 91.1984L227.904 69.122H235.631L216.554 91.1984Z" fill="#EA6C00"/>
<path d="M205.203 69.122H227.904L216.553 91.1984" fill="#FDAD00"/>
<path fill-rule="evenodd" clip-rule="evenodd" d="M205.8 58.0167L216.553 56.8872L205.203 69.1219L205.8 58.0167ZM227.306 58.0167L216.553 56.8872L227.904 69.1219L227.306 58.0167Z" fill="#FDD231"/>
<path fill-rule="evenodd" clip-rule="evenodd" d="M205.8 58.0167L197.476 69.1219H205.203L205.8 58.0167ZM227.306 58.0167L235.631 69.1219H227.904L227.306 58.0167Z" fill="#FDAD00"/>
<path d="M216.553 56.8872L205.203 69.1219H227.904" fill="#FEEEB7"/>
<path d="M70.613 212.813L67.9097 182.429H97.6462L94.9429 212.813L82.745 216.247" fill="#E34F26"/>
<path d="M82.8109 213.605L92.6351 210.897L94.9429 184.873H82.8109" fill="#EF652A"/>
<path fill-rule="evenodd" clip-rule="evenodd" d="M77.8658 196.167H82.8109V199.932H74.4373L73.5142 189.628L73.4482 188.637H82.745H82.8109V192.336H77.5362L77.8658 196.167ZM82.745 205.877H82.8109V209.774H82.745L75.0966 207.66L74.6351 201.782H76.3494H78.3274L78.5911 204.754L82.745 205.877Z" fill="#EBEBEB"/>
<path fill-rule="evenodd" clip-rule="evenodd" d="M82.745 190.949V188.637H92.1077L92.0418 189.628L91.8439 191.544L91.778 192.336H82.745V190.949ZM82.745 199.932V196.167H90.3934H91.4483L91.3165 197.158L90.4593 207L90.3934 207.66L82.745 209.774V205.877L86.8989 204.754L87.3604 199.932H82.745Z" fill="white"/>
<path fill-rule="evenodd" clip-rule="evenodd" d="M487.398 254.031C487.538 254.031 487.678 254.143 487.706 254.311C487.713 254.356 487.984 256.184 488.378 258.848L488.379 258.852L488.379 258.856L488.38 258.859C489.475 266.26 491.521 280.095 491.542 280.116L482.274 282.416L460.883 278.713C460.883 278.713 463.459 258.939 463.543 258.238C463.655 257.312 463.683 257.284 464.663 256.976C464.691 256.948 466.035 256.527 467.967 255.938C468.191 254.451 468.919 252.544 469.871 251.029C471.215 248.87 472.895 247.664 474.575 247.608C475.443 247.58 476.171 247.86 476.731 248.477C476.745 248.505 476.766 248.526 476.787 248.547C476.808 248.568 476.829 248.589 476.843 248.617C476.955 248.589 477.039 248.589 477.123 248.589C478.411 248.589 479.502 249.347 480.23 250.749C480.454 251.198 480.622 251.619 480.734 251.983C481.378 251.787 481.77 251.675 481.77 251.675C481.91 251.619 482.33 251.562 482.526 251.759C482.722 251.955 484.794 253.975 484.794 253.975C484.794 253.975 487.258 254.031 487.398 254.031ZM478.86 252.567C479.142 252.477 479.414 252.391 479.67 252.32C479.39 251.45 478.775 250.02 477.515 249.767C477.907 250.777 478.019 251.983 478.019 252.825C478.307 252.742 478.589 252.653 478.86 252.567L478.86 252.567L478.86 252.567ZM476.871 253.189C476.385 253.335 475.877 253.492 475.358 253.652L475.358 253.652C474.681 253.861 473.984 254.077 473.287 254.283C473.623 252.965 474.295 251.647 475.079 250.777C475.387 250.469 475.807 250.104 476.283 249.879C476.787 250.861 476.899 252.236 476.871 253.189ZM475.611 248.982C475.331 248.814 474.995 248.73 474.603 248.73C471.999 248.814 469.731 252.881 469.143 255.573C470.067 255.293 471.075 254.984 472.083 254.676C472.419 252.965 473.231 251.17 474.295 250.02C474.715 249.571 475.163 249.234 475.611 248.982Z" fill="#95BF47"/>
<path d="M487.398 254.031C487.258 254.031 484.794 253.975 484.794 253.975C484.794 253.975 482.722 251.955 482.526 251.759C482.442 251.675 482.358 251.647 482.246 251.618V282.388L491.514 280.088C491.514 280.088 487.734 254.479 487.706 254.283C487.678 254.143 487.538 254.031 487.398 254.031Z" fill="#5E8E3E"/>
<path d="M477.095 258.799L476.031 262.838C476.031 262.838 474.827 262.277 473.399 262.389C471.299 262.529 471.299 263.848 471.299 264.184C471.411 265.979 476.143 266.372 476.423 270.607C476.619 273.945 474.659 276.217 471.831 276.385C468.415 276.61 466.539 274.59 466.539 274.59L467.267 271.505C467.267 271.505 469.143 272.935 470.655 272.823C471.635 272.767 471.999 271.954 471.971 271.393C471.831 269.037 467.967 269.177 467.715 265.306C467.519 262.053 469.647 258.743 474.351 258.462C476.171 258.322 477.095 258.799 477.095 258.799Z" fill="white"/>
<path fill-rule="evenodd" clip-rule="evenodd" d="M198 242.664H351V319.5H198V242.664Z" fill="white"/>
<path fill-rule="evenodd" clip-rule="evenodd" d="M351 242.664L198 242.664L273.083 176.5L351 242.664Z" fill="#F6F9FC"/>
<path fill-rule="evenodd" clip-rule="evenodd" d="M210.219 313.631V203.713H339.844V313.631H210.219Z" fill="#0052E2"/>
<path opacity="0.93801" d="M233.426 237.984V246.187H245.945V237.984C245.945 236.812 246.206 235.933 246.727 235.347C247.26 234.761 247.957 234.468 248.816 234.468C249.689 234.468 250.392 234.761 250.926 235.347C251.473 235.92 251.746 236.799 251.746 237.984V260.543C251.746 261.728 251.473 262.613 250.926 263.199C250.379 263.785 249.676 264.078 248.816 264.078C247.944 264.078 247.247 263.785 246.727 263.199C246.206 262.6 245.945 261.715 245.945 260.543V250.914H233.426V260.543C233.426 261.728 233.152 262.613 232.605 263.199C232.059 263.785 231.355 264.078 230.496 264.078C229.624 264.078 228.927 263.785 228.406 263.199C227.885 262.6 227.625 261.715 227.625 260.543V237.984C227.625 236.812 227.879 235.933 228.387 235.347C228.908 234.761 229.611 234.468 230.496 234.468C231.368 234.468 232.072 234.761 232.605 235.347C233.152 235.92 233.426 236.799 233.426 237.984ZM272.488 254.547H262.059C262.072 255.758 262.312 256.825 262.781 257.75C263.263 258.674 263.895 259.371 264.676 259.84C265.47 260.308 266.342 260.543 267.293 260.543C267.931 260.543 268.51 260.471 269.031 260.328C269.565 260.172 270.079 259.937 270.574 259.625C271.069 259.299 271.525 258.954 271.941 258.59C272.358 258.225 272.898 257.73 273.562 257.105C273.836 256.871 274.227 256.754 274.734 256.754C275.281 256.754 275.724 256.903 276.062 257.203C276.401 257.502 276.57 257.925 276.57 258.472C276.57 258.954 276.382 259.521 276.004 260.172C275.626 260.81 275.053 261.428 274.285 262.027C273.53 262.613 272.573 263.101 271.414 263.492C270.268 263.883 268.947 264.078 267.449 264.078C264.025 264.078 261.362 263.101 259.461 261.148C257.56 259.195 256.609 256.545 256.609 253.199C256.609 251.623 256.844 250.165 257.312 248.824C257.781 247.47 258.465 246.311 259.363 245.347C260.262 244.384 261.368 243.648 262.684 243.14C263.999 242.619 265.457 242.359 267.059 242.359C269.142 242.359 270.926 242.802 272.41 243.687C273.908 244.56 275.027 245.692 275.77 247.086C276.512 248.479 276.883 249.898 276.883 251.343C276.883 252.685 276.499 253.557 275.73 253.961C274.962 254.351 273.882 254.547 272.488 254.547ZM262.059 251.519H271.727C271.596 249.696 271.102 248.336 270.242 247.437C269.396 246.526 268.276 246.07 266.883 246.07C265.555 246.07 264.461 246.532 263.602 247.457C262.755 248.368 262.241 249.722 262.059 251.519ZM281.395 260.836V237.711C281.395 236.643 281.629 235.836 282.098 235.289C282.579 234.742 283.224 234.468 284.031 234.468C284.839 234.468 285.49 234.742 285.984 235.289C286.479 235.823 286.727 236.63 286.727 237.711V260.836C286.727 261.916 286.473 262.73 285.965 263.277C285.47 263.811 284.826 264.078 284.031 264.078C283.25 264.078 282.612 263.798 282.117 263.238C281.635 262.678 281.395 261.877 281.395 260.836ZM292.254 260.836V237.711C292.254 236.643 292.488 235.836 292.957 235.289C293.439 234.742 294.083 234.468 294.891 234.468C295.698 234.468 296.349 234.742 296.844 235.289C297.339 235.823 297.586 236.63 297.586 237.711V260.836C297.586 261.916 297.332 262.73 296.824 263.277C296.329 263.811 295.685 264.078 294.891 264.078C294.109 264.078 293.471 263.798 292.977 263.238C292.495 262.678 292.254 261.877 292.254 260.836ZM323.074 253.238C323.074 254.827 322.827 256.291 322.332 257.633C321.837 258.974 321.121 260.126 320.184 261.09C319.246 262.053 318.126 262.795 316.824 263.316C315.522 263.824 314.057 264.078 312.43 264.078C310.815 264.078 309.363 263.817 308.074 263.297C306.785 262.776 305.665 262.034 304.715 261.07C303.777 260.093 303.061 258.948 302.566 257.633C302.085 256.304 301.844 254.84 301.844 253.238C301.844 251.623 302.091 250.146 302.586 248.804C303.081 247.463 303.79 246.317 304.715 245.367C305.639 244.416 306.759 243.687 308.074 243.179C309.389 242.659 310.841 242.398 312.43 242.398C314.044 242.398 315.509 242.659 316.824 243.179C318.139 243.7 319.266 244.442 320.203 245.406C321.141 246.369 321.85 247.515 322.332 248.843C322.827 250.172 323.074 251.636 323.074 253.238ZM317.723 253.238C317.723 251.063 317.241 249.371 316.277 248.16C315.327 246.949 314.044 246.343 312.43 246.343C311.388 246.343 310.47 246.617 309.676 247.164C308.882 247.698 308.27 248.492 307.84 249.547C307.41 250.601 307.195 251.832 307.195 253.238C307.195 254.631 307.404 255.849 307.82 256.89C308.25 257.932 308.855 258.733 309.637 259.293C310.431 259.84 311.362 260.113 312.43 260.113C314.044 260.113 315.327 259.508 316.277 258.297C317.241 257.073 317.723 255.386 317.723 253.238Z" fill="white"/>
<rect opacity="0.7" x="225.625" y="221.321" width="25.5" height="3.20149" rx="1.60075" fill="#D8D8D8"/>
<path fill-rule="evenodd" clip-rule="evenodd" d="M351 242.664L198 319.5H351V242.664Z" fill="#ECF3FB"/>
<path fill-rule="evenodd" clip-rule="evenodd" d="M198 242.664L351 319.5H198V242.664Z" fill="#F6F9FC"/>
<ellipse opacity="0.148098" cx="336.125" cy="207.448" rx="12.75" ry="12.806" fill="#030303"/>
<ellipse cx="337.188" cy="205.313" rx="12.75" ry="12.806" fill="#FB8B82"/>
<path d="M339.346 211.183H337.013V202.354C336.161 203.154 335.157 203.746 334 204.13V202.004C334.609 201.803 335.27 201.424 335.984 200.866C336.698 200.307 337.188 199.655 337.453 198.91H339.346V211.183Z" fill="white"/>
</svg>
